<?xml version="1.0" encoding="utf-8"?>
<svg xmlns="http://www.w3.org/2000/svg" xmlns:xlink="http://www.w3.org/1999/xlink" style="margin: auto; background: none; display: block; shape-rendering: auto;" width="201px" height="201px" viewBox="0 0 100 100" preserveAspectRatio="xMidYMid">
<g transform="rotate(0 50 50)">
  <rect x="43.5" y="14.5" rx="6.5" ry="6.5" width="13" height="13" fill="#bb2026">
    <animate attributeName="opacity" values="1;0" keyTimes="0;1" dur="1.6949152542372878s" begin="-1.677966101694915s" repeatCount="indefinite"></animate>
  </rect>
</g><g transform="rotate(3.6 50 50)">
  <rect x="43.5" y="14.5" rx="6.5" ry="6.5" width="13" height="13" fill="#bb2026">
    <animate attributeName="opacity" values="1;0" keyTimes="0;1" dur="1.6949152542372878s" begin="-1.6610169491525422s" repeatCount="indefinite"></animate>
  </rect>
</g><g transform="rotate(7.2 50 50)">
  <rect x="43.5" y="14.5" rx="6.5" ry="6.5" width="13" height="13" fill="#bb2026">
    <animate attributeName="opacity" values="1;0" keyTimes="0;1" dur="1.6949152542372878s" begin="-1.6440677966101693s" repeatCount="indefinite"></animate>
  </rect>
</g><g transform="rotate(10.8 50 50)">
  <rect x="43.5" y="14.5" rx="6.5" ry="6.5" width="13" height="13" fill="#bb2026">
    <animate attributeName="opacity" values="1;0" keyTimes="0;1" dur="1.6949152542372878s" begin="-1.6271186440677965s" repeatCount="indefinite"></animate>
  </rect>
</g><g transform="rotate(14.4 50 50)">
  <rect x="43.5" y="14.5" rx="6.5" ry="6.5" width="13" height="13" fill="#bb2026">
    <animate attributeName="opacity" values="1;0" keyTimes="0;1" dur="1.6949152542372878s" begin="-1.6101694915254234s" repeatCount="indefinite"></animate>
  </rect>
</g><g transform="rotate(18 50 50)">
  <rect x="43.5" y="14.5" rx="6.5" ry="6.5" width="13" height="13" fill="#bb2026">
    <animate attributeName="opacity" values="1;0" keyTimes="0;1" dur="1.6949152542372878s" begin="-1.5932203389830506s" repeatCount="indefinite"></animate>
  </rect>
</g><g transform="rotate(21.6 50 50)">
  <rect x="43.5" y="14.5" rx="6.5" ry="6.5" width="13" height="13" fill="#bb2026">
    <animate attributeName="opacity" values="1;0" keyTimes="0;1" dur="1.6949152542372878s" begin="-1.5762711864406778s" repeatCount="indefinite"></animate>
  </rect>
</g><g transform="rotate(25.2 50 50)">
  <rect x="43.5" y="14.5" rx="6.5" ry="6.5" width="13" height="13" fill="#bb2026">
    <animate attributeName="opacity" values="1;0" keyTimes="0;1" dur="1.6949152542372878s" begin="-1.559322033898305s" repeatCount="indefinite"></animate>
  </rect>
</g><g transform="rotate(28.8 50 50)">
  <rect x="43.5" y="14.5" rx="6.5" ry="6.5" width="13" height="13" fill="#bb2026">
    <animate attributeName="opacity" values="1;0" keyTimes="0;1" dur="1.6949152542372878s" begin="-1.542372881355932s" repeatCount="indefinite"></animate>
  </rect>
</g><g transform="rotate(32.4 50 50)">
  <rect x="43.5" y="14.5" rx="6.5" ry="6.5" width="13" height="13" fill="#bb2026">
    <animate attributeName="opacity" values="1;0" keyTimes="0;1" dur="1.6949152542372878s" begin="-1.525423728813559s" repeatCount="indefinite"></animate>
  </rect>
</g><g transform="rotate(36 50 50)">
  <rect x="43.5" y="14.5" rx="6.5" ry="6.5" width="13" height="13" fill="#bb2026">
    <animate attributeName="opacity" values="1;0" keyTimes="0;1" dur="1.6949152542372878s" begin="-1.5084745762711862s" repeatCount="indefinite"></animate>
  </rect>
</g><g transform="rotate(39.6 50 50)">
  <rect x="43.5" y="14.5" rx="6.5" ry="6.5" width="13" height="13" fill="#bb2026">
    <animate attributeName="opacity" values="1;0" keyTimes="0;1" dur="1.6949152542372878s" begin="-1.4915254237288134s" repeatCount="indefinite"></animate>
  </rect>
</g><g transform="rotate(43.2 50 50)">
  <rect x="43.5" y="14.5" rx="6.5" ry="6.5" width="13" height="13" fill="#bb2026">
    <animate attributeName="opacity" values="1;0" keyTimes="0;1" dur="1.6949152542372878s" begin="-1.4745762711864405s" repeatCount="indefinite"></animate>
  </rect>
</g><g transform="rotate(46.8 50 50)">
  <rect x="43.5" y="14.5" rx="6.5" ry="6.5" width="13" height="13" fill="#bb2026">
    <animate attributeName="opacity" values="1;0" keyTimes="0;1" dur="1.6949152542372878s" begin="-1.4576271186440677s" repeatCount="indefinite"></animate>
  </rect>
</g><g transform="rotate(50.4 50 50)">
  <rect x="43.5" y="14.5" rx="6.5" ry="6.5" width="13" height="13" fill="#bb2026">
    <animate attributeName="opacity" values="1;0" keyTimes="0;1" dur="1.6949152542372878s" begin="-1.4406779661016949s" repeatCount="indefinite"></animate>
  </rect>
</g><g transform="rotate(54 50 50)">
  <rect x="43.5" y="14.5" rx="6.5" ry="6.5" width="13" height="13" fill="#bb2026">
    <animate attributeName="opacity" values="1;0" keyTimes="0;1" dur="1.6949152542372878s" begin="-1.4237288135593218s" repeatCount="indefinite"></animate>
  </rect>
</g><g transform="rotate(57.6 50 50)">
  <rect x="43.5" y="14.5" rx="6.5" ry="6.5" width="13" height="13" fill="#bb2026">
    <animate attributeName="opacity" values="1;0" keyTimes="0;1" dur="1.6949152542372878s" begin="-1.406779661016949s" repeatCount="indefinite"></animate>
  </rect>
</g><g transform="rotate(61.2 50 50)">
  <rect x="43.5" y="14.5" rx="6.5" ry="6.5" width="13" height="13" fill="#bb2026">
    <animate attributeName="opacity" values="1;0" keyTimes="0;1" dur="1.6949152542372878s" begin="-1.3898305084745761s" repeatCount="indefinite"></animate>
  </rect>
</g><g transform="rotate(64.8 50 50)">
  <rect x="43.5" y="14.5" rx="6.5" ry="6.5" width="13" height="13" fill="#bb2026">
    <animate attributeName="opacity" values="1;0" keyTimes="0;1" dur="1.6949152542372878s" begin="-1.3728813559322033s" repeatCount="indefinite"></animate>
  </rect>
</g><g transform="rotate(68.4 50 50)">
  <rect x="43.5" y="14.5" rx="6.5" ry="6.5" width="13" height="13" fill="#bb2026">
    <animate attributeName="opacity" values="1;0" keyTimes="0;1" dur="1.6949152542372878s" begin="-1.3559322033898304s" repeatCount="indefinite"></animate>
  </rect>
</g><g transform="rotate(72 50 50)">
  <rect x="43.5" y="14.5" rx="6.5" ry="6.5" width="13" height="13" fill="#bb2026">
    <animate attributeName="opacity" values="1;0" keyTimes="0;1" dur="1.6949152542372878s" begin="-1.3389830508474574s" repeatCount="indefinite"></animate>
  </rect>
</g><g transform="rotate(75.6 50 50)">
  <rect x="43.5" y="14.5" rx="6.5" ry="6.5" width="13" height="13" fill="#bb2026">
    <animate attributeName="opacity" values="1;0" keyTimes="0;1" dur="1.6949152542372878s" begin="-1.3220338983050846s" repeatCount="indefinite"></animate>
  </rect>
</g><g transform="rotate(79.2 50 50)">
  <rect x="43.5" y="14.5" rx="6.5" ry="6.5" width="13" height="13" fill="#bb2026">
    <animate attributeName="opacity" values="1;0" keyTimes="0;1" dur="1.6949152542372878s" begin="-1.3050847457627117s" repeatCount="indefinite"></animate>
  </rect>
</g><g transform="rotate(82.8 50 50)">
  <rect x="43.5" y="14.5" rx="6.5" ry="6.5" width="13" height="13" fill="#bb2026">
    <animate attributeName="opacity" values="1;0" keyTimes="0;1" dur="1.6949152542372878s" begin="-1.2881355932203389s" repeatCount="indefinite"></animate>
  </rect>
</g><g transform="rotate(86.4 50 50)">
  <rect x="43.5" y="14.5" rx="6.5" ry="6.5" width="13" height="13" fill="#bb2026">
    <animate attributeName="opacity" values="1;0" keyTimes="0;1" dur="1.6949152542372878s" begin="-1.271186440677966s" repeatCount="indefinite"></animate>
  </rect>
</g><g transform="rotate(90 50 50)">
  <rect x="43.5" y="14.5" rx="6.5" ry="6.5" width="13" height="13" fill="#bb2026">
    <animate attributeName="opacity" values="1;0" keyTimes="0;1" dur="1.6949152542372878s" begin="-1.254237288135593s" repeatCount="indefinite"></animate>
  </rect>
</g><g transform="rotate(93.6 50 50)">
  <rect x="43.5" y="14.5" rx="6.5" ry="6.5" width="13" height="13" fill="#bb2026">
    <animate attributeName="opacity" values="1;0" keyTimes="0;1" dur="1.6949152542372878s" begin="-1.2372881355932202s" repeatCount="indefinite"></animate>
  </rect>
</g><g transform="rotate(97.2 50 50)">
  <rect x="43.5" y="14.5" rx="6.5" ry="6.5" width="13" height="13" fill="#bb2026">
    <animate attributeName="opacity" values="1;0" keyTimes="0;1" dur="1.6949152542372878s" begin="-1.2203389830508473s" repeatCount="indefinite"></animate>
  </rect>
</g><g transform="rotate(100.8 50 50)">
  <rect x="43.5" y="14.5" rx="6.5" ry="6.5" width="13" height="13" fill="#bb2026">
    <animate attributeName="opacity" values="1;0" keyTimes="0;1" dur="1.6949152542372878s" begin="-1.2033898305084745s" repeatCount="indefinite"></animate>
  </rect>
</g><g transform="rotate(104.4 50 50)">
  <rect x="43.5" y="14.5" rx="6.5" ry="6.5" width="13" height="13" fill="#bb2026">
    <animate attributeName="opacity" values="1;0" keyTimes="0;1" dur="1.6949152542372878s" begin="-1.1864406779661016s" repeatCount="indefinite"></animate>
  </rect>
</g><g transform="rotate(108 50 50)">
  <rect x="43.5" y="14.5" rx="6.5" ry="6.5" width="13" height="13" fill="#bb2026">
    <animate attributeName="opacity" values="1;0" keyTimes="0;1" dur="1.6949152542372878s" begin="-1.1694915254237286s" repeatCount="indefinite"></animate>
  </rect>
</g><g transform="rotate(111.6 50 50)">
  <rect x="43.5" y="14.5" rx="6.5" ry="6.5" width="13" height="13" fill="#bb2026">
    <animate attributeName="opacity" values="1;0" keyTimes="0;1" dur="1.6949152542372878s" begin="-1.1525423728813557s" repeatCount="indefinite"></animate>
  </rect>
</g><g transform="rotate(115.2 50 50)">
  <rect x="43.5" y="14.5" rx="6.5" ry="6.5" width="13" height="13" fill="#bb2026">
    <animate attributeName="opacity" values="1;0" keyTimes="0;1" dur="1.6949152542372878s" begin="-1.135593220338983s" repeatCount="indefinite"></animate>
  </rect>
</g><g transform="rotate(118.8 50 50)">
  <rect x="43.5" y="14.5" rx="6.5" ry="6.5" width="13" height="13" fill="#bb2026">
    <animate attributeName="opacity" values="1;0" keyTimes="0;1" dur="1.6949152542372878s" begin="-1.11864406779661s" repeatCount="indefinite"></animate>
  </rect>
</g><g transform="rotate(122.4 50 50)">
  <rect x="43.5" y="14.5" rx="6.5" ry="6.5" width="13" height="13" fill="#bb2026">
    <animate attributeName="opacity" values="1;0" keyTimes="0;1" dur="1.6949152542372878s" begin="-1.1016949152542372s" repeatCount="indefinite"></animate>
  </rect>
</g><g transform="rotate(126 50 50)">
  <rect x="43.5" y="14.5" rx="6.5" ry="6.5" width="13" height="13" fill="#bb2026">
    <animate attributeName="opacity" values="1;0" keyTimes="0;1" dur="1.6949152542372878s" begin="-1.0847457627118642s" repeatCount="indefinite"></animate>
  </rect>
</g><g transform="rotate(129.6 50 50)">
  <rect x="43.5" y="14.5" rx="6.5" ry="6.5" width="13" height="13" fill="#bb2026">
    <animate attributeName="opacity" values="1;0" keyTimes="0;1" dur="1.6949152542372878s" begin="-1.0677966101694913s" repeatCount="indefinite"></animate>
  </rect>
</g><g transform="rotate(133.2 50 50)">
  <rect x="43.5" y="14.5" rx="6.5" ry="6.5" width="13" height="13" fill="#bb2026">
    <animate attributeName="opacity" values="1;0" keyTimes="0;1" dur="1.6949152542372878s" begin="-1.0508474576271185s" repeatCount="indefinite"></animate>
  </rect>
</g><g transform="rotate(136.8 50 50)">
  <rect x="43.5" y="14.5" rx="6.5" ry="6.5" width="13" height="13" fill="#bb2026">
    <animate attributeName="opacity" values="1;0" keyTimes="0;1" dur="1.6949152542372878s" begin="-1.0338983050847457s" repeatCount="indefinite"></animate>
  </rect>
</g><g transform="rotate(140.4 50 50)">
  <rect x="43.5" y="14.5" rx="6.5" ry="6.5" width="13" height="13" fill="#bb2026">
    <animate attributeName="opacity" values="1;0" keyTimes="0;1" dur="1.6949152542372878s" begin="-1.0169491525423728s" repeatCount="indefinite"></animate>
  </rect>
</g><g transform="rotate(144 50 50)">
  <rect x="43.5" y="14.5" rx="6.5" ry="6.5" width="13" height="13" fill="#bb2026">
    <animate attributeName="opacity" values="1;0" keyTimes="0;1" dur="1.6949152542372878s" begin="-0.9999999999999999s" repeatCount="indefinite"></animate>
  </rect>
</g><g transform="rotate(147.6 50 50)">
  <rect x="43.5" y="14.5" rx="6.5" ry="6.5" width="13" height="13" fill="#bb2026">
    <animate attributeName="opacity" values="1;0" keyTimes="0;1" dur="1.6949152542372878s" begin="-0.983050847457627s" repeatCount="indefinite"></animate>
  </rect>
</g><g transform="rotate(151.2 50 50)">
  <rect x="43.5" y="14.5" rx="6.5" ry="6.5" width="13" height="13" fill="#bb2026">
    <animate attributeName="opacity" values="1;0" keyTimes="0;1" dur="1.6949152542372878s" begin="-0.9661016949152541s" repeatCount="indefinite"></animate>
  </rect>
</g><g transform="rotate(154.8 50 50)">
  <rect x="43.5" y="14.5" rx="6.5" ry="6.5" width="13" height="13" fill="#bb2026">
    <animate attributeName="opacity" values="1;0" keyTimes="0;1" dur="1.6949152542372878s" begin="-0.9491525423728813s" repeatCount="indefinite"></animate>
  </rect>
</g><g transform="rotate(158.4 50 50)">
  <rect x="43.5" y="14.5" rx="6.5" ry="6.5" width="13" height="13" fill="#bb2026">
    <animate attributeName="opacity" values="1;0" keyTimes="0;1" dur="1.6949152542372878s" begin="-0.9322033898305083s" repeatCount="indefinite"></animate>
  </rect>
</g><g transform="rotate(162 50 50)">
  <rect x="43.5" y="14.5" rx="6.5" ry="6.5" width="13" height="13" fill="#bb2026">
    <animate attributeName="opacity" values="1;0" keyTimes="0;1" dur="1.6949152542372878s" begin="-0.9152542372881355s" repeatCount="indefinite"></animate>
  </rect>
</g><g transform="rotate(165.6 50 50)">
  <rect x="43.5" y="14.5" rx="6.5" ry="6.5" width="13" height="13" fill="#bb2026">
    <animate attributeName="opacity" values="1;0" keyTimes="0;1" dur="1.6949152542372878s" begin="-0.8983050847457626s" repeatCount="indefinite"></animate>
  </rect>
</g><g transform="rotate(169.2 50 50)">
  <rect x="43.5" y="14.5" rx="6.5" ry="6.5" width="13" height="13" fill="#bb2026">
    <animate attributeName="opacity" values="1;0" keyTimes="0;1" dur="1.6949152542372878s" begin="-0.8813559322033897s" repeatCount="indefinite"></animate>
  </rect>
</g><g transform="rotate(172.8 50 50)">
  <rect x="43.5" y="14.5" rx="6.5" ry="6.5" width="13" height="13" fill="#bb2026">
    <animate attributeName="opacity" values="1;0" keyTimes="0;1" dur="1.6949152542372878s" begin="-0.8644067796610169s" repeatCount="indefinite"></animate>
  </rect>
</g><g transform="rotate(176.4 50 50)">
  <rect x="43.5" y="14.5" rx="6.5" ry="6.5" width="13" height="13" fill="#bb2026">
    <animate attributeName="opacity" values="1;0" keyTimes="0;1" dur="1.6949152542372878s" begin="-0.8474576271186439s" repeatCount="indefinite"></animate>
  </rect>
</g><g transform="rotate(180 50 50)">
  <rect x="43.5" y="14.5" rx="6.5" ry="6.5" width="13" height="13" fill="#bb2026">
    <animate attributeName="opacity" values="1;0" keyTimes="0;1" dur="1.6949152542372878s" begin="-0.8305084745762711s" repeatCount="indefinite"></animate>
  </rect>
</g><g transform="rotate(183.6 50 50)">
  <rect x="43.5" y="14.5" rx="6.5" ry="6.5" width="13" height="13" fill="#bb2026">
    <animate attributeName="opacity" values="1;0" keyTimes="0;1" dur="1.6949152542372878s" begin="-0.8135593220338982s" repeatCount="indefinite"></animate>
  </rect>
</g><g transform="rotate(187.2 50 50)">
  <rect x="43.5" y="14.5" rx="6.5" ry="6.5" width="13" height="13" fill="#bb2026">
    <animate attributeName="opacity" values="1;0" keyTimes="0;1" dur="1.6949152542372878s" begin="-0.7966101694915253s" repeatCount="indefinite"></animate>
  </rect>
</g><g transform="rotate(190.8 50 50)">
  <rect x="43.5" y="14.5" rx="6.5" ry="6.5" width="13" height="13" fill="#bb2026">
    <animate attributeName="opacity" values="1;0" keyTimes="0;1" dur="1.6949152542372878s" begin="-0.7796610169491525s" repeatCount="indefinite"></animate>
  </rect>
</g><g transform="rotate(194.4 50 50)">
  <rect x="43.5" y="14.5" rx="6.5" ry="6.5" width="13" height="13" fill="#bb2026">
    <animate attributeName="opacity" values="1;0" keyTimes="0;1" dur="1.6949152542372878s" begin="-0.7627118644067795s" repeatCount="indefinite"></animate>
  </rect>
</g><g transform="rotate(198 50 50)">
  <rect x="43.5" y="14.5" rx="6.5" ry="6.5" width="13" height="13" fill="#bb2026">
    <animate attributeName="opacity" values="1;0" keyTimes="0;1" dur="1.6949152542372878s" begin="-0.7457627118644067s" repeatCount="indefinite"></animate>
  </rect>
</g><g transform="rotate(201.6 50 50)">
  <rect x="43.5" y="14.5" rx="6.5" ry="6.5" width="13" height="13" fill="#bb2026">
    <animate attributeName="opacity" values="1;0" keyTimes="0;1" dur="1.6949152542372878s" begin="-0.7288135593220338s" repeatCount="indefinite"></animate>
  </rect>
</g><g transform="rotate(205.2 50 50)">
  <rect x="43.5" y="14.5" rx="6.5" ry="6.5" width="13" height="13" fill="#bb2026">
    <animate attributeName="opacity" values="1;0" keyTimes="0;1" dur="1.6949152542372878s" begin="-0.7118644067796609s" repeatCount="indefinite"></animate>
  </rect>
</g><g transform="rotate(208.8 50 50)">
  <rect x="43.5" y="14.5" rx="6.5" ry="6.5" width="13" height="13" fill="#bb2026">
    <animate attributeName="opacity" values="1;0" keyTimes="0;1" dur="1.6949152542372878s" begin="-0.6949152542372881s" repeatCount="indefinite"></animate>
  </rect>
</g><g transform="rotate(212.4 50 50)">
  <rect x="43.5" y="14.5" rx="6.5" ry="6.5" width="13" height="13" fill="#bb2026">
    <animate attributeName="opacity" values="1;0" keyTimes="0;1" dur="1.6949152542372878s" begin="-0.6779661016949152s" repeatCount="indefinite"></animate>
  </rect>
</g><g transform="rotate(216 50 50)">
  <rect x="43.5" y="14.5" rx="6.5" ry="6.5" width="13" height="13" fill="#bb2026">
    <animate attributeName="opacity" values="1;0" keyTimes="0;1" dur="1.6949152542372878s" begin="-0.6610169491525423s" repeatCount="indefinite"></animate>
  </rect>
</g><g transform="rotate(219.6 50 50)">
  <rect x="43.5" y="14.5" rx="6.5" ry="6.5" width="13" height="13" fill="#bb2026">
    <animate attributeName="opacity" values="1;0" keyTimes="0;1" dur="1.6949152542372878s" begin="-0.6440677966101694s" repeatCount="indefinite"></animate>
  </rect>
</g><g transform="rotate(223.2 50 50)">
  <rect x="43.5" y="14.5" rx="6.5" ry="6.5" width="13" height="13" fill="#bb2026">
    <animate attributeName="opacity" values="1;0" keyTimes="0;1" dur="1.6949152542372878s" begin="-0.6271186440677965s" repeatCount="indefinite"></animate>
  </rect>
</g><g transform="rotate(226.8 50 50)">
  <rect x="43.5" y="14.5" rx="6.5" ry="6.5" width="13" height="13" fill="#bb2026">
    <animate attributeName="opacity" values="1;0" keyTimes="0;1" dur="1.6949152542372878s" begin="-0.6101694915254237s" repeatCount="indefinite"></animate>
  </rect>
</g><g transform="rotate(230.4 50 50)">
  <rect x="43.5" y="14.5" rx="6.5" ry="6.5" width="13" height="13" fill="#bb2026">
    <animate attributeName="opacity" values="1;0" keyTimes="0;1" dur="1.6949152542372878s" begin="-0.5932203389830508s" repeatCount="indefinite"></animate>
  </rect>
</g><g transform="rotate(234 50 50)">
  <rect x="43.5" y="14.5" rx="6.5" ry="6.5" width="13" height="13" fill="#bb2026">
    <animate attributeName="opacity" values="1;0" keyTimes="0;1" dur="1.6949152542372878s" begin="-0.5762711864406779s" repeatCount="indefinite"></animate>
  </rect>
</g><g transform="rotate(237.6 50 50)">
  <rect x="43.5" y="14.5" rx="6.5" ry="6.5" width="13" height="13" fill="#bb2026">
    <animate attributeName="opacity" values="1;0" keyTimes="0;1" dur="1.6949152542372878s" begin="-0.559322033898305s" repeatCount="indefinite"></animate>
  </rect>
</g><g transform="rotate(241.2 50 50)">
  <rect x="43.5" y="14.5" rx="6.5" ry="6.5" width="13" height="13" fill="#bb2026">
    <animate attributeName="opacity" values="1;0" keyTimes="0;1" dur="1.6949152542372878s" begin="-0.5423728813559321s" repeatCount="indefinite"></animate>
  </rect>
</g><g transform="rotate(244.8 50 50)">
  <rect x="43.5" y="14.5" rx="6.5" ry="6.5" width="13" height="13" fill="#bb2026">
    <animate attributeName="opacity" values="1;0" keyTimes="0;1" dur="1.6949152542372878s" begin="-0.5254237288135593s" repeatCount="indefinite"></animate>
  </rect>
</g><g transform="rotate(248.4 50 50)">
  <rect x="43.5" y="14.5" rx="6.5" ry="6.5" width="13" height="13" fill="#bb2026">
    <animate attributeName="opacity" values="1;0" keyTimes="0;1" dur="1.6949152542372878s" begin="-0.5084745762711864s" repeatCount="indefinite"></animate>
  </rect>
</g><g transform="rotate(252 50 50)">
  <rect x="43.5" y="14.5" rx="6.5" ry="6.5" width="13" height="13" fill="#bb2026">
    <animate attributeName="opacity" values="1;0" keyTimes="0;1" dur="1.6949152542372878s" begin="-0.4915254237288135s" repeatCount="indefinite"></animate>
  </rect>
</g><g transform="rotate(255.6 50 50)">
  <rect x="43.5" y="14.5" rx="6.5" ry="6.5" width="13" height="13" fill="#bb2026">
    <animate attributeName="opacity" values="1;0" keyTimes="0;1" dur="1.6949152542372878s" begin="-0.47457627118644063s" repeatCount="indefinite"></animate>
  </rect>
</g><g transform="rotate(259.2 50 50)">
  <rect x="43.5" y="14.5" rx="6.5" ry="6.5" width="13" height="13" fill="#bb2026">
    <animate attributeName="opacity" values="1;0" keyTimes="0;1" dur="1.6949152542372878s" begin="-0.45762711864406774s" repeatCount="indefinite"></animate>
  </rect>
</g><g transform="rotate(262.8 50 50)">
  <rect x="43.5" y="14.5" rx="6.5" ry="6.5" width="13" height="13" fill="#bb2026">
    <animate attributeName="opacity" values="1;0" keyTimes="0;1" dur="1.6949152542372878s" begin="-0.44067796610169485s" repeatCount="indefinite"></animate>
  </rect>
</g><g transform="rotate(266.4 50 50)">
  <rect x="43.5" y="14.5" rx="6.5" ry="6.5" width="13" height="13" fill="#bb2026">
    <animate attributeName="opacity" values="1;0" keyTimes="0;1" dur="1.6949152542372878s" begin="-0.42372881355932196s" repeatCount="indefinite"></animate>
  </rect>
</g><g transform="rotate(270 50 50)">
  <rect x="43.5" y="14.5" rx="6.5" ry="6.5" width="13" height="13" fill="#bb2026">
    <animate attributeName="opacity" values="1;0" keyTimes="0;1" dur="1.6949152542372878s" begin="-0.4067796610169491s" repeatCount="indefinite"></animate>
  </rect>
</g><g transform="rotate(273.6 50 50)">
  <rect x="43.5" y="14.5" rx="6.5" ry="6.5" width="13" height="13" fill="#bb2026">
    <animate attributeName="opacity" values="1;0" keyTimes="0;1" dur="1.6949152542372878s" begin="-0.38983050847457623s" repeatCount="indefinite"></animate>
  </rect>
</g><g transform="rotate(277.2 50 50)">
  <rect x="43.5" y="14.5" rx="6.5" ry="6.5" width="13" height="13" fill="#bb2026">
    <animate attributeName="opacity" values="1;0" keyTimes="0;1" dur="1.6949152542372878s" begin="-0.37288135593220334s" repeatCount="indefinite"></animate>
  </rect>
</g><g transform="rotate(280.8 50 50)">
  <rect x="43.5" y="14.5" rx="6.5" ry="6.5" width="13" height="13" fill="#bb2026">
    <animate attributeName="opacity" values="1;0" keyTimes="0;1" dur="1.6949152542372878s" begin="-0.35593220338983045s" repeatCount="indefinite"></animate>
  </rect>
</g><g transform="rotate(284.4 50 50)">
  <rect x="43.5" y="14.5" rx="6.5" ry="6.5" width="13" height="13" fill="#bb2026">
    <animate attributeName="opacity" values="1;0" keyTimes="0;1" dur="1.6949152542372878s" begin="-0.3389830508474576s" repeatCount="indefinite"></animate>
  </rect>
</g><g transform="rotate(288 50 50)">
  <rect x="43.5" y="14.5" rx="6.5" ry="6.5" width="13" height="13" fill="#bb2026">
    <animate attributeName="opacity" values="1;0" keyTimes="0;1" dur="1.6949152542372878s" begin="-0.3220338983050847s" repeatCount="indefinite"></animate>
  </rect>
</g><g transform="rotate(291.6 50 50)">
  <rect x="43.5" y="14.5" rx="6.5" ry="6.5" width="13" height="13" fill="#bb2026">
    <animate attributeName="opacity" values="1;0" keyTimes="0;1" dur="1.6949152542372878s" begin="-0.30508474576271183s" repeatCount="indefinite"></animate>
  </rect>
</g><g transform="rotate(295.2 50 50)">
  <rect x="43.5" y="14.5" rx="6.5" ry="6.5" width="13" height="13" fill="#bb2026">
    <animate attributeName="opacity" values="1;0" keyTimes="0;1" dur="1.6949152542372878s" begin="-0.28813559322033894s" repeatCount="indefinite"></animate>
  </rect>
</g><g transform="rotate(298.8 50 50)">
  <rect x="43.5" y="14.5" rx="6.5" ry="6.5" width="13" height="13" fill="#bb2026">
    <animate attributeName="opacity" values="1;0" keyTimes="0;1" dur="1.6949152542372878s" begin="-0.27118644067796605s" repeatCount="indefinite"></animate>
  </rect>
</g><g transform="rotate(302.4 50 50)">
  <rect x="43.5" y="14.5" rx="6.5" ry="6.5" width="13" height="13" fill="#bb2026">
    <animate attributeName="opacity" values="1;0" keyTimes="0;1" dur="1.6949152542372878s" begin="-0.2542372881355932s" repeatCount="indefinite"></animate>
  </rect>
</g><g transform="rotate(306 50 50)">
  <rect x="43.5" y="14.5" rx="6.5" ry="6.5" width="13" height="13" fill="#bb2026">
    <animate attributeName="opacity" values="1;0" keyTimes="0;1" dur="1.6949152542372878s" begin="-0.23728813559322032s" repeatCount="indefinite"></animate>
  </rect>
</g><g transform="rotate(309.6 50 50)">
  <rect x="43.5" y="14.5" rx="6.5" ry="6.5" width="13" height="13" fill="#bb2026">
    <animate attributeName="opacity" values="1;0" keyTimes="0;1" dur="1.6949152542372878s" begin="-0.22033898305084743s" repeatCount="indefinite"></animate>
  </rect>
</g><g transform="rotate(313.2 50 50)">
  <rect x="43.5" y="14.5" rx="6.5" ry="6.5" width="13" height="13" fill="#bb2026">
    <animate attributeName="opacity" values="1;0" keyTimes="0;1" dur="1.6949152542372878s" begin="-0.20338983050847456s" repeatCount="indefinite"></animate>
  </rect>
</g><g transform="rotate(316.8 50 50)">
  <rect x="43.5" y="14.5" rx="6.5" ry="6.5" width="13" height="13" fill="#bb2026">
    <animate attributeName="opacity" values="1;0" keyTimes="0;1" dur="1.6949152542372878s" begin="-0.18644067796610167s" repeatCount="indefinite"></animate>
  </rect>
</g><g transform="rotate(320.4 50 50)">
  <rect x="43.5" y="14.5" rx="6.5" ry="6.5" width="13" height="13" fill="#bb2026">
    <animate attributeName="opacity" values="1;0" keyTimes="0;1" dur="1.6949152542372878s" begin="-0.1694915254237288s" repeatCount="indefinite"></animate>
  </rect>
</g><g transform="rotate(324 50 50)">
  <rect x="43.5" y="14.5" rx="6.5" ry="6.5" width="13" height="13" fill="#bb2026">
    <animate attributeName="opacity" values="1;0" keyTimes="0;1" dur="1.6949152542372878s" begin="-0.15254237288135591s" repeatCount="indefinite"></animate>
  </rect>
</g><g transform="rotate(327.6 50 50)">
  <rect x="43.5" y="14.5" rx="6.5" ry="6.5" width="13" height="13" fill="#bb2026">
    <animate attributeName="opacity" values="1;0" keyTimes="0;1" dur="1.6949152542372878s" begin="-0.13559322033898302s" repeatCount="indefinite"></animate>
  </rect>
</g><g transform="rotate(331.2 50 50)">
  <rect x="43.5" y="14.5" rx="6.5" ry="6.5" width="13" height="13" fill="#bb2026">
    <animate attributeName="opacity" values="1;0" keyTimes="0;1" dur="1.6949152542372878s" begin="-0.11864406779661016s" repeatCount="indefinite"></animate>
  </rect>
</g><g transform="rotate(334.8 50 50)">
  <rect x="43.5" y="14.5" rx="6.5" ry="6.5" width="13" height="13" fill="#bb2026">
    <animate attributeName="opacity" values="1;0" keyTimes="0;1" dur="1.6949152542372878s" begin="-0.10169491525423728s" repeatCount="indefinite"></animate>
  </rect>
</g><g transform="rotate(338.4 50 50)">
  <rect x="43.5" y="14.5" rx="6.5" ry="6.5" width="13" height="13" fill="#bb2026">
    <animate attributeName="opacity" values="1;0" keyTimes="0;1" dur="1.6949152542372878s" begin="-0.0847457627118644s" repeatCount="indefinite"></animate>
  </rect>
</g><g transform="rotate(342 50 50)">
  <rect x="43.5" y="14.5" rx="6.5" ry="6.5" width="13" height="13" fill="#bb2026">
    <animate attributeName="opacity" values="1;0" keyTimes="0;1" dur="1.6949152542372878s" begin="-0.06779661016949151s" repeatCount="indefinite"></animate>
  </rect>
</g><g transform="rotate(345.6 50 50)">
  <rect x="43.5" y="14.5" rx="6.5" ry="6.5" width="13" height="13" fill="#bb2026">
    <animate attributeName="opacity" values="1;0" keyTimes="0;1" dur="1.6949152542372878s" begin="-0.05084745762711864s" repeatCount="indefinite"></animate>
  </rect>
</g><g transform="rotate(349.2 50 50)">
  <rect x="43.5" y="14.5" rx="6.5" ry="6.5" width="13" height="13" fill="#bb2026">
    <animate attributeName="opacity" values="1;0" keyTimes="0;1" dur="1.6949152542372878s" begin="-0.033898305084745756s" repeatCount="indefinite"></animate>
  </rect>
</g><g transform="rotate(352.8 50 50)">
  <rect x="43.5" y="14.5" rx="6.5" ry="6.5" width="13" height="13" fill="#bb2026">
    <animate attributeName="opacity" values="1;0" keyTimes="0;1" dur="1.6949152542372878s" begin="-0.016949152542372878s" repeatCount="indefinite"></animate>
  </rect>
</g><g transform="rotate(356.4 50 50)">
  <rect x="43.5" y="14.5" rx="6.5" ry="6.5" width="13" height="13" fill="#bb2026">
    <animate attributeName="opacity" values="1;0" keyTimes="0;1" dur="1.6949152542372878s" begin="0s" repeatCount="indefinite"></animate>
  </rect>
</g>
<!-- [ldio] generated by https://loading.io/ --></svg>